<?xml version="1.0" encoding="UTF-8" standalone="no"?>
<!-- Created with Inkscape (http://www.inkscape.org/) -->

<svg
   width="210mm"
   height="297mm"
   viewBox="0 0 210 297"
   version="1.1"
   id="svg5"
   inkscape:version="1.2.2 (732a01da63, 2022-12-09)"
   sodipodi:docname="Spherical_Overlap.svg"
   xmlns:inkscape="http://www.inkscape.org/namespaces/inkscape"
   xmlns:sodipodi="http://sodipodi.sourceforge.net/DTD/sodipodi-0.dtd"
   xmlns:xlink="http://www.w3.org/1999/xlink"
   xmlns="http://www.w3.org/2000/svg"
   xmlns:svg="http://www.w3.org/2000/svg">
  <sodipodi:namedview
     id="namedview7"
     pagecolor="#ffffff"
     bordercolor="#000000"
     borderopacity="0.25"
     inkscape:showpageshadow="2"
     inkscape:pageopacity="0.0"
     inkscape:pagecheckerboard="0"
     inkscape:deskcolor="#d1d1d1"
     inkscape:document-units="mm"
     showgrid="false"
     showguides="false"
     inkscape:zoom="1.8049602"
     inkscape:cx="212.74707"
     inkscape:cy="437.12875"
     inkscape:window-width="2560"
     inkscape:window-height="1369"
     inkscape:window-x="-8"
     inkscape:window-y="-8"
     inkscape:window-maximized="1"
     inkscape:current-layer="layer1" />
  <defs
     id="defs2">
    <pattern
       inkscape:collect="always"
       xlink:href="#pattern44245"
       id="pattern44262"
       patternTransform="matrix(0.12478761,0.00662083,-0.00582853,0.10985509,76.340112,99.385215)" />
    <pattern
       inkscape:collect="always"
       xlink:href="#pattern40100"
       id="pattern40117"
       patternTransform="matrix(0.18085172,0.03187812,-0.02841978,0.16123132,69.16772,74.170368)" />
    <pattern
       inkscape:collect="always"
       xlink:href="#pattern40045"
       id="pattern40062"
       patternTransform="matrix(0.61652549,0,0,0.67526544,9.2707308e-6,1.269685e-5)" />
    <pattern
       inkscape:collect="always"
       xlink:href="#pattern34210"
       id="pattern34227"
       patternTransform="matrix(0.74991893,0.09424286,-0.10591793,0.8428221,24.143457,-28.928669)" />
    <linearGradient
       id="linearGradient27876"
       inkscape:swatch="solid">
      <stop
         style="stop-color:#000000;stop-opacity:1;"
         offset="0"
         id="stop27874" />
    </linearGradient>
    <pattern
       patternUnits="userSpaceOnUse"
       width="24.050581"
       height="34.674529"
       patternTransform="translate(195.45331,471.44479)"
       id="pattern34210">
      <path
         style="fill:none;fill-opacity:1;stroke:#000000;stroke-width:2.64567;stroke-miterlimit:100;stroke-dasharray:none;stroke-dashoffset:0;stroke-opacity:1;paint-order:fill markers stroke"
         d="M 1.1053659,33.947854 22.945215,0.72667575"
         id="path27122" />
    </pattern>
    <pattern
       patternUnits="userSpaceOnUse"
       width="18.177849"
       height="29.454324"
       patternTransform="translate(218.72672,460.13433)"
       id="pattern39761">
      <rect
         style="fill:url(#pattern34227);stroke:none;stroke-width:0.999999"
         width="18.177849"
         height="29.454325"
         x="0"
         y="0"
         id="rect34213"
         ry="0" />
    </pattern>
    <pattern
       patternUnits="userSpaceOnUse"
       width="107.43499"
       height="115.98727"
       patternTransform="translate(171.07761,386.48512)"
       id="pattern39988">
      <path
         style="fill:none;fill-opacity:1;stroke:#000000;stroke-width:2.64567;stroke-miterlimit:100;stroke-dasharray:none;stroke-dashoffset:0;stroke-opacity:1;paint-order:fill markers stroke"
         d="M 0.97166861,115.08964 106.46332,0.89763665"
         id="path39986" />
    </pattern>
    <pattern
       patternUnits="userSpaceOnUse"
       width="43.674759"
       height="45.546681"
       patternTransform="translate(290.0699,434.1034)"
       id="pattern40045">
      <path
         style="fill:none;fill-opacity:1;stroke:#000000;stroke-width:2.64567;stroke-miterlimit:100;stroke-dasharray:none;stroke-dashoffset:0;stroke-opacity:1;paint-order:fill markers stroke"
         d="M 0.95655564,44.632956 42.718204,0.91372466"
         id="path40043" />
    </pattern>
    <pattern
       patternUnits="userSpaceOnUse"
       width="26.926604"
       height="30.756099"
       patternTransform="translate(176.53041,474.12494)"
       id="pattern40100">
      <rect
         style="fill:url(#pattern40062);stroke:none;stroke-width:0.999999"
         width="26.926603"
         height="30.7561"
         x="0"
         y="0"
         id="rect40048" />
    </pattern>
    <pattern
       patternUnits="userSpaceOnUse"
       width="156.34419"
       height="163.00127"
       patternTransform="translate(129.54856,412.57004)"
       id="pattern42615">
      <rect
         style="fill:url(#pattern40117);stroke:none;stroke-width:0.999999"
         width="156.34419"
         height="163.00127"
         x="0"
         y="0"
         id="rect40103"
         ry="0" />
    </pattern>
    <pattern
       patternUnits="userSpaceOnUse"
       width="71.597691"
       height="72.237866"
       patternTransform="translate(35.000191,418.03896)"
       id="pattern44245">
      <path
         style="fill:none;fill-opacity:1;stroke:#2a13bc;stroke-width:1.88976;stroke-miterlimit:100;stroke-dasharray:none;stroke-dashoffset:0;stroke-opacity:1;paint-order:fill markers stroke"
         d="M 0.67121367,71.572829 70.926478,0.66503684"
         id="path43433" />
    </pattern>
    <pattern
       patternUnits="userSpaceOnUse"
       width="163.38093"
       height="188.37124"
       patternTransform="translate(17.6049,364.76556)"
       id="pattern48716">
      <rect
         style="fill:url(#pattern44262);stroke:none"
         width="163.38094"
         height="188.37125"
         x="0"
         y="0"
         id="rect44248"
         ry="0"
         rx="0" />
    </pattern>
  </defs>
  <g
     inkscape:label="Layer 1"
     inkscape:groupmode="layer"
     id="layer1">
    <circle
       style="fill:none;stroke:#000000;stroke-width:0.4;stroke-miterlimit:100;paint-order:fill markers stroke"
       id="path234"
       cx="65.501945"
       cy="122.54503"
       r="30"
       inkscape:export-filename="SphericalOverlap.png"
       inkscape:export-xdpi="232.20758"
       inkscape:export-ydpi="232.20758" />
    <circle
       style="fill:none;stroke:#000000;stroke-width:0.4;stroke-miterlimit:100;paint-order:fill markers stroke"
       id="path236"
       cx="99.609856"
       cy="122.54503"
       r="23" />
    <path
       style="display:inline;fill:#000000;fill-opacity:1;stroke:#000000;stroke-width:0.4;stroke-miterlimit:100;stroke-dasharray:3.2, 0.4;stroke-dashoffset:0;stroke-opacity:1;paint-order:fill markers stroke"
       d="M 88.005,142.33039 88.0765,102.7428"
       id="path5673" />
    <path
       style="display:inline;fill:#c6c6ff;fill-opacity:1;stroke:none;stroke-width:1.88977;stroke-miterlimit:100;stroke-dasharray:none;stroke-dashoffset:0;stroke-opacity:1;paint-order:fill markers stroke"
       d="m 329.85174,535.63677 c -12.98747,-8.37941 -23.31467,-19.83014 -30.27852,-33.57262 -7.3005,-14.40683 -10.42131,-30.78093 -8.92338,-46.81872 2.27829,-24.3929 14.71745,-46.55059 34.36234,-61.20912 1.66644,-1.24346 5.50286,-3.84083 6.62399,-4.48464 l 0.53375,-0.3065 -0.0715,35.33834 c -0.0393,19.4361 -0.1037,52.65068 -0.14306,73.81018 -0.0394,21.15951 -0.10055,38.47164 -0.13598,38.47142 -0.0354,0 -0.92087,-0.55299 -1.96763,-1.22834 z"
       id="path49764"
       transform="scale(0.26458333)" />
    <path
       style="display:inline;fill:url(#pattern42615);fill-opacity:1;stroke:none;stroke-width:3779.52;stroke-miterlimit:100;stroke-dasharray:none;stroke-dashoffset:0;stroke-opacity:1;paint-order:fill markers stroke"
       d="m 329.77667,535.60039 c -8.40038,-5.37459 -16.23332,-12.68335 -22.31947,-20.82582 -8.58227,-11.48197 -14.07644,-24.65059 -16.23467,-38.91186 -1.1188,-7.39285 -1.22412,-15.80689 -0.29167,-23.30097 1.85344,-14.8959 7.47471,-28.85118 16.5118,-40.99195 2.54846,-3.4237 4.55331,-5.71412 8.14951,-9.31032 3.59517,-3.59516 5.88433,-5.59903 9.31031,-8.14995 2.03405,-1.51452 6.98701,-4.83639 7.06369,-4.73751 0.0435,0.0561 -0.18633,126.53627 -0.25419,139.88282 l -0.0384,7.55919 z"
       id="path26125"
       transform="scale(0.26458333)" />
    <path
       style="display:inline;fill:#c6ffd8;fill-opacity:1;stroke:none;stroke-width:1.88976;stroke-miterlimit:100;stroke-dasharray:none;stroke-dashoffset:0;stroke-opacity:1;paint-order:fill markers stroke"
       d="m 333.3784,482.4884 c 0.0256,-29.45883 0.11087,-62.19728 0.18951,-72.75211 l 0.143,-19.19059 1.20591,1.46365 c 13.02802,15.81259 21.77017,36.20733 24.40216,56.92833 0.73375,5.77665 0.94295,10.04187 0.81015,16.51764 -0.13265,6.46837 -0.46433,10.30236 -1.36532,15.78238 -2.79056,16.97274 -9.49865,33.35087 -19.25567,47.01369 -1.97815,2.77001 -5.88355,7.78679 -6.06751,7.79416 -0.0598,0.002 -0.0878,-24.09833 -0.0622,-53.55715 z"
       id="path53699"
       transform="scale(0.26458333)" />
    <path
       style="display:inline;fill:url(#pattern42615);fill-opacity:1;stroke:none;stroke-width:3779.52;stroke-miterlimit:100;stroke-dasharray:none;stroke-dashoffset:0;stroke-opacity:1;paint-order:fill markers stroke"
       d="m 333.21524,499.74044 c 0.0439,-20.06921 0.12147,-52.90773 0.17242,-72.97449 l 0.0926,-36.48503 1.23956,1.49512 c 1.94115,2.34134 4.73977,6.15373 6.79917,9.26211 10.59174,15.98665 16.75276,33.95205 18.40783,53.67682 0.30444,3.62821 0.25496,14.24902 -0.0831,17.84101 -1.86054,19.76795 -7.86605,36.96524 -18.51604,53.02225 -2.49572,3.7628 -7.69966,10.62068 -8.07728,10.64445 -0.0632,0.004 -0.079,-16.41303 -0.0352,-36.48224 z"
       id="path26999"
       inkscape:label="path26999"
       transform="scale(0.26458333)" />
    <text
       xml:space="preserve"
       style="font-size:8.79517px;font-family:Arial;-inkscape-font-specification:Arial;fill:#000000;fill-opacity:1;stroke:#000000;stroke-width:0.5;stroke-miterlimit:100;stroke-dasharray:none;stroke-dashoffset:0;stroke-opacity:1;paint-order:fill markers stroke"
       x="56.376472"
       y="161.88107"
       id="text61562"
       transform="scale(0.99723875,1.0027689)"><tspan
         sodipodi:role="line"
         id="tspan61560"
         style="stroke-width:0.5"
         x="56.376472"
         y="161.88107">Star</tspan></text>
    <text
       xml:space="preserve"
       style="font-size:8.79517px;font-family:Arial;-inkscape-font-specification:Arial;fill:#000000;fill-opacity:1;stroke:#000000;stroke-width:0.5;stroke-miterlimit:100;stroke-dasharray:none;stroke-dashoffset:0;stroke-opacity:1;paint-order:fill markers stroke"
       x="87.365074"
       y="161.82954"
       id="text61562-5"
       transform="scale(0.99723875,1.0027689)"><tspan
         sodipodi:role="line"
         id="tspan61560-5"
         style="stroke-width:0.5"
         x="87.365074"
         y="161.82954">Planet</tspan></text>
  </g>
</svg>
